<svg xmlns="http://www.w3.org/2000/svg" viewBox="0 0 922.82 293.71">
  <defs>
    <style>
      .a2ce21ae-ad15-4cf2-9e62-42e546bbfc67 {
        fill: #fff;
      }
    </style>
  </defs>
  <g id="f3d38b26-7efb-4802-b6d8-aeae121b5bc4" data-name="Layer 2">
    <g id="b6b0d2a0-07da-4cb3-b496-da3b7d3f7a4e" data-name="Layer 1">
      <path class="a2ce21ae-ad15-4cf2-9e62-42e546bbfc67" d="M149.42,266.17l-13.35-34.38,129,6.63-5.79,55ZM180.47,0,0,85.25,27.91,213.71H64.72l-6.36-91.89L64,120.07l22.14,93.64h38.24L123,101.78l5.65-1.75L148,213.71h40.49L198,78.51l5.64-1.76,10,137h53.54l18.84-188ZM737.41,279.53,737,268.71l37.29-.43.34-11.57-37.54-.46-.37-10.72L786,244.37l.41-12.66H719.47l-2,62h70.72l-.5-13ZM402.32,257.32l-.8,11.79,18.94.64-.24,12-39.66-1.16L382.29,246l54.53-1.26-.78-13H366.16l-6.22,62h79.18l-2-37Zm490.55,4.39-51.22-8.66.23-6.71,49-1.83-1.24-12.8h-63l-3.22,32.14,52.07,9,.24,5.91-54.18,2.1-1.33,12.8h75.82Zm-209.65,32-6.22-62H659.16l-25.63,29.56-25.64-29.56H590.05l-6.21,62h21l2-40.22,26.73,27.42,26.72-27.42,2,40.22ZM595,3.71H553l-3.83,192H599.9ZM725.8,154.12l-46.41,1.5L677.85,42.55,726.39,44ZM766,3.71H635l-5.1,192H775.3Zm156.83,42-4.68-42h-129l1.09,37.43,41.27,1.43,4.23,153.14h50.85L871.34,44ZM423.28,43l40.55-1.36L468.44,80l-46.79,22.1ZM470.6,195.71h55.12L489.8,109.54l28.67-15.66L498.88,3.71H358.16l-4.63,41.61,31.48-1L369.83,195.71h49.26l1.33-48.27,35.5-19.39Zm26.9,69.83,4.28-20.35,20.52-.92,4.29,20.41Zm35.57,28.17h20.75l-16.79-62H487.24l-16.79,62H491.2l3.37-16,35.23.46Z"/>
    </g>
  </g>
</svg>
